<svg xmlns="http://www.w3.org/2000/svg" viewBox="0 0 64 64">
  <rect width="64" height="64" rx="14" fill="#ea5d1c"/>
  <!-- Italic P from new Physio One logo -->
  <g transform="translate(-3,-16) scale(1.0)">
    <path d="M47.2,31.9c-.5-1.4-1.2-2.5-2.2-3.3-1.1-.8-2.4-1.4-3.9-1.7-1.5-.3-3.2-.5-5.1-.5h-13l-6.8,35.1h7.7l2.6-13.7h5.7c1.8,0,3.6-.2,5.3-.5,1.6-.3,3.1-.9,4.5-1.8,1.3-.8,2.4-1.9,3.4-3.3.9-1.4,1.6-3.1,2-5.2.4-2.1.4-3.8,0-5.2ZM39.3,37c-.2.8-.4,1.5-.9,2.1-.4.6-.9,1-1.5,1.3-.6.3-1.2.5-1.9.7-.7.1-1.3.2-2,.2h-5.2l1.6-8.3h4c.7,0,1.5,0,2.3.1.8,0,1.5.3,2,.6.6.3,1,.7,1.3,1.3.3.5.4,1.3.2,2.2Z" fill="#ffffff"/>
  </g>
  <!-- Orange + symbol -->
  <g transform="translate(-167.5, 5) scale(0.62)">
    <polygon fill="#ea5d1c" points="235.4 8.8 234.5 13.8 225.8 13.8 224.3 22 224.2 22.5 219.3 22.5 220.8 13.8 212 13.8 213 8.8 213 8.8 221.7 8.8 223.2 0 228.2 0 226.7 8.8 235.4 8.8"/>
  </g>
</svg>