<svg xmlns="http://www.w3.org/2000/svg" viewBox="0 0 64 64">
  <rect width="64" height="64" rx="14" fill="#1a1a1a"/>
  <!-- P from PHYSIO logo, scaled down -->
  <g transform="translate(8,12) scale(0.28)">
    <path d="M15.4,17.6h13c1.8,0,3.5.2,5.2.5,1.6.3,3,.9,4.2,1.7,1.2.8,2.2,1.9,2.9,3.3.7,1.4,1.1,3.1,1.1,5.2s-.3,3.8-1,5.2-1.6,2.5-2.7,3.3c-1.2.8-2.5,1.4-4.1,1.8-1.6.3-3.3.5-5.2.5h-5.7v13.7h-7.7V17.6ZM23.2,32.5h5.2c.7,0,1.4,0,2-.2.6-.1,1.2-.4,1.7-.7.5-.3.9-.7,1.2-1.3.3-.5.5-1.2.5-2.1s-.2-1.6-.6-2.2c-.4-.5-.9-1-1.6-1.3s-1.4-.5-2.2-.6c-.8,0-1.6-.1-2.3-.1h-4v8.3Z" fill="#ffffff"/>
  </g>
  <!-- Orange + -->
  <g transform="translate(30,18) scale(0.28)">
    <path d="M78.1,69.3c0-1.3.2-2.5.7-3.6.4-1.1,1.1-2,1.9-2.8.8-.8,1.8-1.3,2.9-1.8,1.1-.4,2.3-.6,3.6-.6s2.5.2,3.6.6c1.1.4,2.1,1,2.9,1.8.8.8,1.4,1.7,1.9,2.8.4,1.1.7,2.3.7,3.6s-.2,2.5-.7,3.6c-.4,1.1-1.1,2-1.9,2.8-.8.8-1.8,1.3-2.9,1.8-1.1.4-2.3.6-3.6.6s-2.5-.2-3.6-.6c-1.1-.4-2.1-1-2.9-1.8-.8-.8-1.4-1.7-1.9-2.8-.4-1.1-.7-2.3-.7-3.6Z" fill="#ea5d1c" stroke="#ea5d1c" stroke-miterlimit="10" stroke-width=".6"/>
  </g>
</svg>