<?xml version="1.0" encoding="UTF-8"?>
<svg id="Ebene_1" xmlns="http://www.w3.org/2000/svg" version="1.1" viewBox="0 0 215.9 78.3">
  <!-- Generator: Adobe Illustrator 29.4.0, SVG Export Plug-In . SVG Version: 2.1.0 Build 152)  -->
  <defs>
    <style>
      .st0 {
        fill: #ea5d1c;
        stroke: #ea5d1c;
        stroke-miterlimit: 10;
        stroke-width: .6px;
      }
    </style>
  </defs>
  <g>
    <path d="M15.4,17.6h13c1.8,0,3.5.2,5.2.5,1.6.3,3,.9,4.2,1.7,1.2.8,2.2,1.9,2.9,3.3.7,1.4,1.1,3.1,1.1,5.2s-.3,3.8-1,5.2-1.6,2.5-2.7,3.3c-1.2.8-2.5,1.4-4.1,1.8-1.6.3-3.3.5-5.2.5h-5.7v13.7h-7.7V17.6ZM23.2,32.5h5.2c.7,0,1.4,0,2-.2.6-.1,1.2-.4,1.7-.7.5-.3.9-.7,1.2-1.3.3-.5.5-1.2.5-2.1s-.2-1.6-.6-2.2c-.4-.5-.9-1-1.6-1.3s-1.4-.5-2.2-.6c-.8,0-1.6-.1-2.3-.1h-4v8.3Z"/>
    <path d="M47.6,17.6h7.7v13.1h15v-13.1h7.7v35.1h-7.7v-15.2h-15v15.2h-7.7V17.6Z"/>
    <path d="M94.9,37.7l-13.2-20.1h9.6l7.4,13.1,7.9-13.1h9.2l-13.2,20.1v15h-7.7v-15Z"/>
    <path d="M136.7,26.2c-.6-.8-1.5-1.4-2.6-1.8-1.1-.4-2.1-.6-3-.6s-1.1,0-1.7.2-1.2.3-1.7.6c-.5.3-1,.7-1.3,1.1-.3.5-.5,1-.5,1.7,0,1.1.4,1.9,1.2,2.4.8.6,1.8,1,3,1.4,1.2.4,2.5.8,3.9,1.2,1.4.4,2.7,1,3.9,1.7,1.2.7,2.2,1.7,3,2.9.8,1.2,1.2,2.9,1.2,4.9s-.4,3.7-1.1,5.1c-.7,1.5-1.7,2.7-3,3.6-1.2,1-2.7,1.7-4.3,2.1-1.6.5-3.4.7-5.2.7s-4.4-.3-6.3-1-3.8-1.8-5.5-3.4l5.5-6c.8,1.1,1.8,1.9,3,2.5,1.2.6,2.5.9,3.7.9s1.3,0,1.9-.2,1.2-.4,1.7-.7c.5-.3.9-.7,1.2-1.1s.5-1,.5-1.6c0-1.1-.4-1.9-1.2-2.5-.8-.6-1.8-1.1-3-1.6-1.2-.4-2.5-.9-4-1.3-1.4-.4-2.7-1-4-1.7-1.2-.7-2.2-1.7-3-2.9-.8-1.2-1.2-2.8-1.2-4.7s.4-3.5,1.1-5c.7-1.4,1.7-2.6,3-3.6,1.2-1,2.7-1.7,4.3-2.2,1.6-.5,3.3-.7,5-.7s3.9.3,5.8.8c1.9.6,3.5,1.5,5,2.8l-5.3,5.8Z"/>
    <path d="M148.7,17.6h7.7v35.1h-7.7V17.6Z"/>
    <path d="M162.6,35.2c0-2.8.5-5.4,1.4-7.6.9-2.3,2.3-4.2,3.9-5.8,1.7-1.6,3.7-2.8,6-3.7s4.8-1.3,7.6-1.3,5.3.4,7.6,1.3c2.3.9,4.3,2.1,6,3.7,1.7,1.6,3,3.5,3.9,5.8.9,2.3,1.4,4.8,1.4,7.6s-.5,5.4-1.4,7.6c-.9,2.3-2.3,4.2-3.9,5.8-1.7,1.6-3.7,2.8-6,3.7-2.3.9-4.8,1.3-7.6,1.3s-5.3-.4-7.6-1.3-4.3-2.1-6-3.7c-1.7-1.6-3-3.5-3.9-5.8-.9-2.3-1.4-4.8-1.4-7.6ZM170.6,35.2c0,1.7.3,3.2.8,4.5.5,1.4,1.2,2.6,2.2,3.6,1,1,2.1,1.8,3.4,2.4,1.3.6,2.8.8,4.5.8s3.1-.3,4.5-.8c1.3-.6,2.5-1.3,3.4-2.4,1-1,1.7-2.2,2.2-3.6.5-1.4.8-2.9.8-4.5s-.3-3.1-.8-4.5c-.5-1.4-1.2-2.6-2.2-3.6-1-1-2.1-1.8-3.4-2.4-1.3-.6-2.8-.8-4.5-.8s-3.1.3-4.5.8c-1.3.6-2.5,1.3-3.4,2.4-1,1-1.7,2.2-2.2,3.6-.5,1.4-.8,2.9-.8,4.5Z"/>
  </g>
  <path d="M200.7,0H15.2C6.8,0,0,6.8,0,15.2v41c0,8.4,6.8,15.2,15.2,15.2h55.9v-5H15.2c-5.6,0-10.2-4.6-10.2-10.2V15.2c0-5.6,4.6-10.2,10.2-10.2h185.6c5.6,0,10.2,4.6,10.2,10.2v41c0,5.6-4.6,10.2-10.2,10.2h-55.9v5h55.9c8.4,0,15.2-6.8,15.2-15.2V15.2c0-8.4-6.8-15.2-15.2-15.2Z"/>
  <g>
    <path class="st0" d="M78.1,69.3c0-1.3.2-2.5.7-3.6.4-1.1,1.1-2,1.9-2.8.8-.8,1.8-1.3,2.9-1.8,1.1-.4,2.3-.6,3.6-.6s2.5.2,3.6.6c1.1.4,2.1,1,2.9,1.8.8.8,1.4,1.7,1.9,2.8.4,1.1.7,2.3.7,3.6s-.2,2.5-.7,3.6c-.4,1.1-1.1,2-1.9,2.8-.8.8-1.8,1.3-2.9,1.8-1.1.4-2.3.6-3.6.6s-2.5-.2-3.6-.6c-1.1-.4-2.1-1-2.9-1.8-.8-.8-1.4-1.7-1.9-2.8-.4-1.1-.7-2.3-.7-3.6ZM82,69.3c0,.8.1,1.5.4,2.2s.6,1.2,1,1.7c.5.5,1,.9,1.6,1.1s1.3.4,2.1.4,1.5-.1,2.1-.4c.6-.3,1.2-.6,1.6-1.1.5-.5.8-1,1-1.7.2-.7.4-1.4.4-2.2s-.1-1.5-.4-2.1c-.2-.7-.6-1.2-1-1.7-.5-.5-1-.9-1.6-1.1-.6-.3-1.3-.4-2.1-.4s-1.5.1-2.1.4-1.2.6-1.6,1.1c-.5.5-.8,1-1,1.7s-.4,1.4-.4,2.1Z"/>
    <path class="st0" d="M102.4,60.9h5l7.1,11.6h0v-11.6h3.7v16.7h-4.8l-7.3-11.9h0v11.9h-3.7v-16.7Z"/>
    <path class="st0" d="M125.6,60.9h11.3v3.4h-7.7v3.1h7.2v3.4h-7.2v3.4h8.1v3.4h-11.8v-16.7Z"/>
  </g>
</svg>