<?xml version="1.0" encoding="UTF-8"?>
<svg id="Ebene_1" xmlns="http://www.w3.org/2000/svg" version="1.1" viewBox="0 0 270.9 94.2">
  <defs>
    <style>
      .st0 {
        stroke: #ea5d1c;
        stroke-miterlimit: 10;
        stroke-width: .7px;
      }

      .st0, .st1 {
        fill: #ea5d1c;
      }

      .white {
        fill: #ffffff;
      }
    </style>
  </defs>
  <g>
    <g class="white">
      <path d="M58.1,28.2c-.5-1.6-1.4-3-2.6-3.9-1.2-1-2.8-1.6-4.6-2s-3.9-.6-6-.6h-15.6l-9,41.9h9.2l3.5-16.3h6.7c2.2,0,4.3-.2,6.3-.6,2-.4,3.8-1.1,5.4-2.1,1.6-1,3-2.3,4.1-4,1.1-1.7,2-3.7,2.5-6.2.5-2.5.6-4.6,0-6.2ZM47.4,36.8c-.5.7-1.1,1.2-1.8,1.5-.7.4-1.4.6-2.2.8-.8.2-1.6.2-2.5.2h-6.2l2.1-10h4.7c.9,0,1.8,0,2.7.2.9,0,1.7.3,2.4.7.7.3,1.2.8,1.6,1.5.3.7.4,1.5.2,2.6-.2,1-.6,1.8-1.1,2.4Z"/>
      <path d="M95,21.6l-3.4,15.6h-17.9l3.4-15.6h-9.2l-9,41.9h9.2l3.9-18.1h17.9l-3.9,18.1h9.2l9-41.9h-9.2Z"/>
      <path d="M138.3,21.6l-12.8,15.7-5.5-15.7h-11.5l10.6,24-3.8,17.9h9.2l3.8-17.9,20.9-24h-11Z"/>
      <path d="M174.2,45c-.6-1.5-1.6-2.6-2.8-3.5-1.3-.9-2.7-1.5-4.2-2s-3-.9-4.3-1.4c-1.3-.5-2.4-1.1-3.2-1.7-.8-.7-1.1-1.6-.8-2.9s.5-1.5,1-2c.5-.5,1.1-1,1.8-1.3.7-.3,1.4-.6,2.2-.7.7-.2,1.4-.2,2.1-.2,1.1,0,2.3.2,3.5.7,1.2.5,2.1,1.2,2.6,2.1l7.8-6.9c-1.4-1.6-3.2-2.7-5.3-3.4s-4.3-1-6.7-1-4.1.3-6.2.9c-2,.6-3.9,1.4-5.7,2.6s-3.2,2.6-4.5,4.3c-1.2,1.7-2.1,3.7-2.6,5.9-.5,2.3-.4,4.2.2,5.6s1.6,2.6,2.9,3.4c1.3.9,2.7,1.6,4.3,2.1,1.6.5,3.1,1,4.4,1.5s2.4,1.1,3.2,1.9c.8.7,1.1,1.7.8,3s-.5,1.4-1,2c-.5.5-1.1,1-1.8,1.4-.7.4-1.4.6-2.3.8-.8.2-1.6.3-2.3.3-1.5,0-3-.3-4.2-1-1.3-.7-2.3-1.7-3-2.9l-8.1,7.2c1.6,1.9,3.5,3.2,5.6,4,2.2.8,4.6,1.2,7.3,1.2s4.3-.3,6.4-.8c2.1-.5,4-1.4,5.7-2.5,1.7-1.1,3.2-2.6,4.5-4.3,1.2-1.7,2.1-3.8,2.6-6.1s.5-4.4-.2-5.9Z"/>
      <path d="M188.6,21.6l-9,41.9h9.2l9-41.9h-9.2Z"/>
      <path d="M246.2,33.5c-.5-2.7-1.6-5-3.2-7-1.6-1.9-3.7-3.4-6.2-4.4-2.5-1-5.5-1.5-8.7-1.5s-6.4.5-9.4,1.5c-3,1-5.7,2.5-8.1,4.4-2.4,1.9-4.5,4.2-6.2,7-1.7,2.7-2.9,5.8-3.6,9.1-.7,3.4-.8,6.4-.3,9.1.5,2.7,1.6,5.1,3.2,7,1.6,1.9,3.7,3.4,6.2,4.4,2.5,1,5.5,1.5,8.7,1.5s6.4-.5,9.4-1.5c3-1,5.7-2.5,8.1-4.4,2.4-1.9,4.5-4.2,6.2-7,1.7-2.7,2.9-5.8,3.6-9.1s.8-6.4.3-9.1ZM234.2,48c-1,1.6-2.1,3.1-3.5,4.3-1.4,1.2-3,2.2-4.7,2.8-1.7.7-3.6,1-5.6,1s-3.7-.3-5.1-1c-1.5-.7-2.6-1.6-3.5-2.8-.9-1.2-1.5-2.6-1.7-4.3-.3-1.6-.2-3.4.2-5.4s1.1-3.7,2.1-5.4c1-1.7,2.1-3.1,3.6-4.3,1.4-1.2,3-2.1,4.7-2.8s3.6-1,5.6-1,3.7.3,5.1,1c1.5.7,2.6,1.6,3.5,2.8.9,1.2,1.5,2.6,1.7,4.3.3,1.6.2,3.5-.2,5.4s-1.1,3.8-2.1,5.4Z"/>
    </g>
    <g>
      <path class="white" d="M269.9,16.4l-11,51.3c-2.1,10-12,18.1-22,18.1h-95.1l1.3-6h95.1c6.7,0,13.3-5.4,14.7-12.1l11-51.3c1.2-5.4-2.3-9.8-7.7-9.8H32.3c-6.7,0-13.3,5.4-14.8,12.1l-10.5,49c-1.4,6.7,2.8,12.1,9.5,12.1h10.6l-1.3,6h-10.6c-10,0-16.4-8.2-14.2-18.1L11.5,18.7C13.7,8.7,23.6.6,33.5.6h224c8.7,0,14.3,7.1,12.4,15.8Z"/>
      <path class="white" d="M236.9,86.4h-95.9l1.5-7.2h95.6c6.4,0,12.8-5.2,14.2-11.7l11-51.3c.5-2.5,0-4.8-1.3-6.5-1.3-1.7-3.4-2.6-5.8-2.6H32.3c-6.4,0-12.8,5.2-14.2,11.7l-10.5,49c-.7,3.1,0,6,1.7,8.2,1.7,2.1,4.3,3.2,7.3,3.2h11.3l-1.5,7.2h-11.1c-4.9,0-9.2-1.9-12-5.4-2.9-3.6-3.9-8.4-2.8-13.4L10.9,18.6C13.1,8.3,23.3,0,33.5,0h224c4.3,0,8.1,1.7,10.6,4.7,2.5,3.1,3.4,7.3,2.5,11.8l-11,51.3c-2.2,10.2-12.3,18.6-22.6,18.6ZM142.5,85.2h94.4c9.7,0,19.3-7.9,21.4-17.6l11-51.3c.9-4.1,0-7.9-2.2-10.8-2.2-2.8-5.6-4.3-9.6-4.3H33.5c-9.7,0-19.3,7.9-21.4,17.6L1.6,67.8c-1,4.7-.1,9.1,2.6,12.4,2.6,3.2,6.5,5,11.1,5h10.1l1-4.8h-9.8c-3.4,0-6.3-1.3-8.2-3.7-2-2.4-2.7-5.7-1.9-9.2l10.5-49c1.5-7,8.4-12.6,15.3-12.6h224c2.8,0,5.1,1.1,6.7,3,1.6,2,2.2,4.7,1.6,7.5l-11,51.3c-1.5,7-8.4,12.6-15.3,12.6h-94.6l-1,4.8Z"/>
    </g>
    <g>
      <path class="st0" d="M56.5,79c-.3-1.3-.8-2.4-1.5-3.3-.8-.9-1.8-1.6-3-2.1-1.2-.5-2.6-.7-4.1-.7s-3.1.3-4.5.7c-1.4.5-2.7,1.2-3.9,2.1-1.2.9-2.1,2-3,3.3-.8,1.3-1.4,2.7-1.7,4.3-.3,1.6-.4,3-.1,4.3.3,1.3.8,2.4,1.5,3.3.8.9,1.7,1.6,3,2.1,1.2.5,2.6.7,4.2.7s3-.2,4.5-.7c1.4-.5,2.7-1.2,3.9-2.1,1.2-.9,2.1-2,2.9-3.3.8-1.3,1.4-2.7,1.7-4.3.3-1.6.4-3,.1-4.3ZM50.8,85.9c-.5.8-1,1.5-1.7,2-.7.6-1.4,1-2.2,1.3-.8.3-1.7.5-2.6.5s-1.8-.2-2.5-.5c-.7-.3-1.2-.8-1.7-1.3-.4-.6-.7-1.3-.8-2-.1-.8,0-1.6.1-2.6.2-.9.5-1.8,1-2.6.5-.8,1-1.5,1.7-2,.7-.6,1.4-1,2.2-1.3.8-.3,1.7-.5,2.7-.5s1.8.2,2.4.5c.7.3,1.2.8,1.7,1.3.4.6.7,1.3.8,2,.1.8,0,1.6-.1,2.6-.2.9-.5,1.8-1,2.6Z"/>
      <g>
        <path class="st1" d="M80.5,73.4l-3,13.9h0l-5.5-13.9h-6l-4.3,19.9h4.4l3-14.2h0l5.7,14.2h5.7l4.3-19.9h-4.4Z"/>
        <path class="st1" d="M80.9,93.7h-6.3l-5.4-13.4-2.9,13.4h-5.1l4.4-20.7h6.5v.2c0,0,5.2,12.9,5.2,12.9l2.8-13.1h5.1l-4.4,20.7ZM75.1,93h5.2l4.1-19.2h-3.7l-3,13.9h-.5v-.2c-.1,0-5.6-13.6-5.6-13.6h-5.4l-4.1,19.2h3.7l3-14.2h.5l.2.2,5.6,14Z"/>
      </g>
      <g>
        <path class="st1" d="M94.6,89.3l.9-4h8.7l.9-4.1h-8.7l.8-3.7h9.2l.9-4h-13.5l-4.3,19.9h14l.9-4.1h-9.7Z"/>
        <path class="st1" d="M103.7,93.7h-14.8l4.4-20.7h14.3l-1,4.8h-9.2l-.6,3h8.7l-1,4.8h-8.7l-.7,3.3h9.7l-1,4.8ZM89.8,93h13.3l.7-3.3h-9.7l1-4.8h8.7l.7-3.3h-8.7l1-4.4h9.2l.7-3.3h-12.8l-4.1,19.2Z"/>
      </g>
    </g>
  </g>
  <polygon class="st1" points="135.6 80.2 134.5 85.5 126.7 85.5 125 93.2 119.8 93.2 121.4 85.5 113.7 85.5 114.8 80.2 122.6 80.2 124.2 72.4 129.5 72.4 127.8 80.2 135.6 80.2"/>
</svg>